<svg xmlns="http://www.w3.org/2000/svg" viewBox="0 0 465.91 560"><defs><style>.cls-1{fill:#fff;}</style></defs><title>favicon_1</title><g id="Layer_2" data-name="Layer 2"><g id="Layer_1-2" data-name="Layer 1"><path class="cls-1" d="M465.91,333.84q0-76.93-28.17-132.61c-2.23-4.45-4.57-8.77-7.05-12.85L375,278.1H88.36l31.27-166.84a66.24,66.24,0,0,0-7.79,3.95Q59,144.7,29.54,198.26C9.89,234.1,0,275.5,0,322.84q0,71.75,29.54,124.94a208.65,208.65,0,0,0,82.68,82.68q53.19,29.47,124.2,29.54,85.08,0,144.72-37.57c39.67-25,70.93-66.74,80.2-116.91H314.89c-5.68,17.42-14.95,30-27.92,37.57S258,454.46,238.89,454.46q-38.74,0-62.9-23.11Q151.89,408,150.28,360.78H465.91Z"/><path class="cls-1" d="M182.72,52.25,110.08,234.76c11.88-63.12,23.5-126.25,35.39-189.38,3.17.53,6.34,1.06,9.78,1.58,9.23,1.86,18.22,3.44,27.47,5.29"/><polygon class="cls-1" points="241.87 31.91 139.39 196.72 210.18 19.23 241.87 31.91"/><path class="cls-1" d="M277,0,112.46,264.84H151C187.6,205.89,224.3,146.57,261.13,87.62c2.11-3.46,4.21-6.79,6.31-10.25l5.93,2.34c13.72,5.07,28.18.5,37.2-11.12.24-.25.49-.49.49-.74.87-1.12,1.36-1.12,2.35-.5C336.65,81.81,360,96.4,383.48,110.86a5.87,5.87,0,0,0,1.24.86c-7.91,14.21-6.55,32.51,10.38,44.61a.92.92,0,0,1-.25.75c-22.36,36-44.86,71.8-67.1,107.76h39.79c39.67-63.64,77.24-124.08,93.31-150.28Z"/><path class="cls-1" d="M301.26,168A44.22,44.22,0,0,0,254,242.75c20.16,12.42,47.34,7.84,60.93-14.25A43.6,43.6,0,0,0,301.26,168ZM312,212.21c-1.32,2.4-2.74,4.79-4.27,7.08a2.86,2.86,0,0,1-1.73.91c-7.38,1.28-14.76,2.5-22.14,3.72-2.85.46-5.7,1-8.5,1.48a4.5,4.5,0,0,1-3.52-.77c-1.83-1.22-3.71-2.44-5.59-3.56-.87-.51-1-.92-.46-1.73,1.78-2.75,3.51-5.5,5.14-8.3,1.48-2.49,2.59-5.14,1.78-8.19a4.42,4.42,0,0,0-.25-.87,4.74,4.74,0,0,0-.41-.71c-1.78,2.85-3.46,5.5-5.09,8.2-1.58,2.54-3.21,5.09-4.79,7.68-.45.76-.86,1-1.62.41-1.23-.82-2.45-1.58-3.72-2.29-1-.56-1-1.12-.46-2,3.11-4.88,6.16-9.82,9.21-14.76a9.49,9.49,0,0,0,.56-.91c-.91.15-1.57.2-2.24.35a7.51,7.51,0,0,0-4.63,3.31c-2.13,3.31-4.27,6.67-6.31,10-.56.86-1,1-1.88.46-2.14-1.43-4.33-2.75-6.52-4.08-.71-.4-1-.86-.45-1.68,6.51-10.43,13-20.86,19.49-31.3,0-.1.15-.2.3-.41,1.89,1.17,3.77,2.4,5.76,3.62-2,3.26-4,6.51-6.26,10.08a6.37,6.37,0,0,1,1.57-.16,31.77,31.77,0,0,1,5.4.56,1.58,1.58,0,0,0,2-.86c1.11-1.89,2.29-3.77,3.51-5.7,2,1.17,3.87,2.39,5.95,3.66-1.07,1.68-2,3.41-3.2,5.09-.87,1.22-1,1.94.2,3.26,4.83,5.24,5.45,14,1.58,20.05-.16.26-.26.51-.56,1,1.07-.2,1.83-.41,2.64-.56,9.27-1.58,18.48-3.15,27.74-4.68a2.25,2.25,0,0,1,1.78.71A2.18,2.18,0,0,1,312,212.21Z"/></g></g></svg>