<?xml version="1.0" encoding="utf-8"?>
<!-- Generator: Adobe Illustrator 23.0.6, SVG Export Plug-In . SVG Version: 6.00 Build 0)  -->
<svg version="1.1" id="Layer_1" xmlns="http://www.w3.org/2000/svg" xmlns:xlink="http://www.w3.org/1999/xlink" x="0px" y="0px"
	 viewBox="0 0 320 220" style="enable-background:new 0 0 320 220;" xml:space="preserve">
<path d="M277.79,29.58C242.63,3.87,209.77,2.72,203.57,2.7l-3.97,3.91c44.21,12.59,65.96,32.16,66.63,32.77
	c-117.07-57.6-213.68-1.86-215.9-1.39c0,0,21.7-21.38,69.54-32.8l-2.92-2.88c0,0-36.24-1.36-75.35,27.1c0,0-39.1,67.07-39.1,149.76
	c0,0,21.67,37.12,81.11,38.53c0,0,8.68-11.37,17.45-21.38c-32.87-9.82-45.97-29.33-46.37-29.94c0.21,0.1,3.06,1.51,7.24,4.26h1.28
	c0.66,0,0.96,0.31,1.31,0.64v0.12c0.33,0.35,0.64,0.64,1.3,0.64c70.97,28.81,130.29,35.46,197.98-7.15
	c-0.4,0.61-13.54,20.12-47.77,29.94c7.16,9.94,17.23,21.33,17.23,21.33c59.46-1.28,82.56-38.4,83.87-36.82
	C317.13,96.78,277.79,29.58,277.79,29.58z M109.72,153.55c-15.17,0-27.52-12.8-27.52-28.46c0-15.79,12.35-28.54,27.52-28.54
	l0.09-0.07c15.16,0,27.43,12.8,27.43,28.48C137.24,140.75,124.89,153.55,109.72,153.55z M208.24,153.55
	c-15.17,0-27.52-12.8-27.52-28.46c0.04-15.79,12.42-28.54,27.52-28.54v-0.07c15.23,0,27.51,12.8,27.51,28.48
	C235.75,140.75,223.41,153.55,208.24,153.55z"/>
</svg>
