<?xml version="1.0" encoding="utf-8"?>
<!-- Generator: Adobe Illustrator 23.0.6, SVG Export Plug-In . SVG Version: 6.00 Build 0)  -->
<svg version="1.1" id="Layer_10" xmlns="http://www.w3.org/2000/svg" xmlns:xlink="http://www.w3.org/1999/xlink" x="0px" y="0px"
	 viewBox="0 0 1410 370" style="enable-background:new 0 0 1410 370;" xml:space="preserve">
<g>
	<g>
		<path d="M355.7,31.8c-3.3-7.3-8.5-13.5-15-18.1c-7.3-5.3-16.3-8.3-26-8.3H179.9L128,95.3L24.2,275.1l-12.4,21.7
			c-0.4,0.6-0.8,1.2-1.1,1.8c-3.5,6.4-5.4,13.7-5.4,21.4c0,18.2,10.9,33.9,26.5,40.9c5.6,2.6,11.9,4,18.5,4c2.3,0,4.5-0.2,6.7-0.5
			c7.1-1.1,13.7-3.8,19.3-7.8c4.9-3.5,9-7.9,12.2-12.9c0.1-0.1,0.2-0.3,0.3-0.4c0.2-0.4,0.4-0.7,0.6-1.1l38.7-67.1L231.8,95.3h82.9
			c2.3,0,4.5-0.2,6.7-0.5c7.1-1.1,13.7-3.8,19.3-7.8c4.9-3.5,9-7.9,12.2-12.9c0.1-0.1,0.2-0.3,0.3-0.4c0.2-0.4,0.4-0.7,0.6-1.1
			c3.7-6.5,5.8-14.1,5.8-22.2C359.7,43.7,358.2,37.5,355.7,31.8z"/>
	</g>
	<g>
		<path d="M586.2,315.6c-0.5-5-1.8-9.8-3.8-14.2c-0.4-0.9-0.8-1.8-1.3-2.7c-0.4-0.8-0.9-1.7-1.5-2.6L567.4,275l-26-44.9l-12-20.8
			L496.9,153l-1.3-2.2l-32.1-55.6L411.7,5.3l-51.9,89.9L256,275l-12.4,21.7c-0.4,0.6-0.8,1.2-1.1,1.8c-3.5,6.4-5.4,13.7-5.4,21.4
			c0,18.2,10.9,33.9,26.5,40.9c5.6,2.6,11.9,4,18.5,4c2.3,0,4.5-0.2,6.7-0.5c7.1-1.1,13.7-3.8,19.3-7.8c4.9-3.5,9-7.9,12.2-12.9
			c0.1-0.1,0.2-0.3,0.3-0.4c0.2-0.4,0.4-0.7,0.6-1.1l38.7-67.1l51.9-89.8l51.9,89.8l32.1,55.7l6.5,11.2c2.3,4.2,5.3,8,8.9,11.1
			c3.5,3.2,7.6,5.9,12,7.9c2.8,1.3,5.7,2.2,8.8,2.9c3.1,0.7,6.3,1,9.6,1h1.2c1.9,0,3.7-0.2,5.6-0.4c7.1-1.1,13.7-3.8,19.3-7.8
			c4.9-3.5,9-7.9,12.2-12.9c0.1-0.1,0.2-0.3,0.3-0.4c0.2-0.4,0.4-0.7,0.6-1.1c2.5-4.3,4.2-9,5.1-14.1c0.2-1.3,0.4-2.5,0.5-3.8
			c0.2-1.4,0.2-2.8,0.2-4.3C586.5,318.5,586.4,317,586.2,315.6z"/>
	</g>
	<g>
		<path d="M1124.8,227.1l-0.1-0.1l-0.1-0.3l-0.2-0.3l-70.7-122.5l-3.4-5.8v9l0,0v101.7c0,1.7-0.1,3.4-0.2,5.1c0,0.4-0.1,0.7-0.1,1.1
			c-0.2,1.7-0.4,3.4-0.7,5.1c-0.3,1.9-0.7,3.9-1.2,5.7c0,0,0,0.1,0,0.1c-0.5,1.7-1,3.4-1.6,5.1c-0.1,0.3-0.3,0.7-0.4,1
			c-0.5,1.3-1,2.7-1.6,4c-0.1,0.2-0.2,0.4-0.3,0.6c-0.1,0.2-0.2,0.4-0.3,0.6c-0.5,1-1,2-1.6,3c-0.3,0.5-0.6,1.1-0.9,1.6
			c-0.2,0.4-0.4,0.7-0.7,1.1c-0.5,0.9-1.1,1.8-1.7,2.7c-0.2,0.3-0.4,0.6-0.6,0.9c-0.1,0.2-0.3,0.4-0.4,0.6c-0.9,1.2-1.7,2.4-2.7,3.5
			c-0.1,0.2-0.3,0.3-0.4,0.5c-0.4,0.5-0.9,1-1.4,1.5c-0.7,0.7-1.3,1.5-2,2.2c-0.4,0.4-0.9,0.9-1.3,1.3c-0.9,0.9-1.9,1.8-2.9,2.7
			c-1.1,0.9-2.2,1.8-3.4,2.7c-0.3,0.2-0.6,0.5-0.9,0.7c-1.1,0.8-2.2,1.5-3.4,2.3c-0.5,0.3-1,0.6-1.4,0.9c-1.7,1-3.5,2-5.3,2.9
			c0,0-0.1,0-0.1,0.1c-0.1,0-0.1,0.1-0.2,0.1c-1.8,0.8-3.7,1.6-5.6,2.3c-1.1,0.4-2.3,0.8-3.5,1.1c-0.7,0.2-1.4,0.4-2.1,0.6
			c-1.4,0.4-2.7,0.7-4.1,0.9c-0.8,0.1-1.5,0.3-2.3,0.4c-1.3,0.2-2.7,0.4-4,0.5c-0.6,0.1-1.2,0.1-1.9,0.2c-1,0.1-2,0.1-2.9,0.1
			c-0.7,0-1.3,0.1-2,0.1c-0.3,0-0.7,0-1,0c-1.5,0-3.1-0.1-4.6-0.2c-0.4,0-0.7-0.1-1.1-0.1c-0.7,0-1.4-0.2-2.2-0.3
			c-1.1-0.1-2.3-0.3-3.4-0.5c-0.3-0.1-0.7-0.1-1-0.2c-0.2,0-0.5-0.1-0.7-0.2c-1.5-0.3-3-0.7-4.5-1.2c-0.2-0.1-0.4-0.1-0.7-0.2
			c-0.6-0.2-1.2-0.4-1.7-0.6c-1-0.3-2.1-0.7-3.1-1.1c-1-0.4-1.9-0.8-2.9-1.2c-1-0.5-2-0.9-3-1.5c-1-0.5-1.9-1-2.9-1.5
			c-1-0.5-1.9-1.1-2.8-1.7c-0.8-0.5-1.5-1-2.3-1.5c-0.9-0.6-1.7-1.3-2.6-1.9c-0.7-0.5-1.4-1.1-2.1-1.6c-1.1-1-2.2-2-3.3-3
			c-0.4-0.4-0.9-0.9-1.3-1.3c-1.2-1.2-2.4-2.5-3.5-3.8c-0.3-0.3-0.5-0.6-0.8-1c-1-1.2-1.9-2.4-2.8-3.7c-0.4-0.6-0.8-1.3-1.3-1.9
			c-0.6-0.9-1.1-1.7-1.6-2.6c-0.6-0.9-1.1-1.8-1.5-2.8c-0.5-1.1-1.1-2.1-1.5-3.2c-0.3-0.6-0.6-1.3-0.8-1.9c-0.3-0.8-0.6-1.6-0.9-2.4
			c-0.2-0.6-0.5-1.2-0.7-1.8c-0.4-1.1-0.7-2.2-1-3.3c-0.3-0.9-0.5-1.9-0.7-2.9c-0.1-0.3-0.1-0.5-0.2-0.8c-0.2-0.8-0.3-1.5-0.4-2.2
			c-0.3-1.4-0.5-2.9-0.7-4.4c0-0.3-0.1-0.6-0.1-0.8c0-0.3,0-0.7-0.1-1c-0.1-1.7-0.2-3.5-0.3-5.3c0,0,0,0,0-0.1V50.1
			c0-6.6-1.4-12.9-4-18.6c-3.3-7.3-8.5-13.5-15-18.1c-7.3-5.3-16.3-8.3-26-8.3c-14.2,0-26.9,6.6-35.1,17c-1.2,1.5-2.3,3.1-3.3,4.7
			c-0.4,0.6-0.8,1.2-1.1,1.8c-3.5,6.4-5.4,13.7-5.4,21.4v157.9c0,0.2,0,0.4,0,0.6c0,15,2.2,29.6,6.2,43.3l0,0.1
			c0,0.1,0.1,0.3,0.1,0.4c0,0.2,0.1,0.3,0.2,0.5c0.1,0.2,0.1,0.4,0.1,0.6v0.1c0.5,1.7,1.1,3.5,1.7,5.2l0,0c0.5,1.6,1.1,3.1,1.7,4.7
			c0,0,0,0,0,0c0.1,0.2,0.2,0.5,0.3,0.7c0,0.1,0,0.1,0.1,0.2c0.5,1.2,0.9,2.4,1.4,3.5c0.2,0.6,0.4,1.2,0.7,1.8
			c0.5,1.2,1.1,2.4,1.6,3.5c0.1,0.2,0.2,0.3,0.2,0.5c0.2,0.4,0.4,0.8,0.6,1.2c0.6,1.3,1.3,2.7,1.9,4c0.1,0.2,0.2,0.4,0.3,0.6
			c0.5,0.9,1,1.9,1.5,2.9c0.1,0.2,0.2,0.3,0.3,0.5c0.5,0.9,1,1.7,1.5,2.6c0.3,0.5,0.6,1.1,0.9,1.6c0.8,1.4,1.6,2.7,2.5,4
			c0.5,0.8,0.9,1.6,1.5,2.4c0.1,0.1,0.1,0.2,0.2,0.3c0.8,1.3,1.8,2.6,2.6,3.9c0,0,0,0.1,0.1,0.1c0.9,1.4,1.9,2.7,2.9,4
			c0.3,0.4,0.6,0.8,0.9,1.2c1.8,2.4,3.7,4.7,5.6,7c0.1,0.2,0.3,0.3,0.4,0.5c0,0,0,0,0,0c0.9,1.1,1.9,2.2,2.9,3.3
			c0.2,0.2,0.4,0.5,0.7,0.7c0.9,1,1.9,2,2.9,3c0.1,0.2,0.3,0.3,0.5,0.5c0.3,0.3,0.5,0.5,0.8,0.8c0.6,0.7,1.3,1.3,2,2
			c0.2,0.2,0.4,0.4,0.5,0.5c0.3,0.3,0.6,0.6,1,0.9c0.3,0.3,0.5,0.5,0.8,0.8c0.6,0.6,1.2,1.1,1.8,1.7c0.3,0.3,0.6,0.5,0.9,0.7
			c0.5,0.5,1.1,0.9,1.7,1.4c0.5,0.4,0.9,0.8,1.4,1.2c0.7,0.6,1.5,1.3,2.2,1.8c0.5,0.5,1.1,0.9,1.7,1.4c0.4,0.3,0.7,0.5,1.1,0.8
			c0.7,0.5,1.4,1.1,2.2,1.6c0.2,0.2,0.4,0.3,0.7,0.5c0.1,0.1,0.3,0.2,0.4,0.3c0.6,0.4,1.2,0.8,1.7,1.2c0.8,0.5,1.5,1.1,2.3,1.6
			c0,0,0.1,0.1,0.1,0.1c0.7,0.5,1.4,0.9,2.1,1.4c0.1,0.1,0.3,0.2,0.4,0.3c0.5,0.3,1,0.6,1.5,0.9c0.2,0.1,0.4,0.2,0.5,0.3
			c1.3,0.8,2.7,1.7,4,2.5c0,0,0.1,0,0.1,0.1c0.5,0.3,1,0.6,1.5,0.9c0.8,0.5,1.6,0.9,2.5,1.4c0.2,0.1,0.3,0.2,0.5,0.3
			c1.1,0.6,2.3,1.2,3.4,1.8c1.2,0.6,2.4,1.2,3.6,1.8c0.4,0.2,0.9,0.5,1.3,0.7c0.8,0.4,1.7,0.7,2.5,1.1c0.7,0.3,1.4,0.7,2.2,1
			c0.2,0.1,0.4,0.2,0.7,0.3c1.2,0.5,2.4,1,3.6,1.5c1.3,0.5,2.7,1,4.1,1.5c6.7,2.4,13.6,4.4,20.8,5.9c0.6,0.1,1.2,0.3,1.8,0.4
			c0.9,0.2,1.7,0.3,2.6,0.5c1,0.2,2,0.4,3,0.5c1.1,0.2,2.1,0.3,3.2,0.5c0.5,0,0.9,0.1,1.4,0.2c0.6,0.1,1.1,0.1,1.7,0.2
			c6.1,0.7,12.3,1.1,18.7,1.1c6.3,0,12.5-0.4,18.5-1.1c0.6-0.1,1.1-0.1,1.7-0.2c0.5-0.1,1-0.1,1.4-0.2c0.8-0.1,1.7-0.3,2.5-0.4
			c1.3-0.2,2.6-0.4,3.9-0.7c0.8-0.1,1.6-0.3,2.5-0.5c0.3-0.1,0.6-0.1,0.9-0.2c10.2-2.1,20-5.2,29.3-9.2c0.2-0.1,0.4-0.2,0.6-0.2
			c0.7-0.3,1.4-0.6,2-0.9c0.6-0.2,1.1-0.5,1.7-0.7c0.3-0.1,0.7-0.3,1-0.4c0.4-0.2,0.8-0.4,1.2-0.6c1.3-0.6,2.5-1.2,3.8-1.9
			c0.4-0.2,0.8-0.4,1.1-0.6c0.7-0.4,1.5-0.7,2.3-1.1c1.5-0.8,3-1.7,4.5-2.6c1.4-0.8,2.8-1.7,4.2-2.6c0.1-0.1,0.3-0.2,0.5-0.3
			c0.3-0.2,0.7-0.4,1-0.7c0.2-0.1,0.3-0.2,0.5-0.3c0.3-0.2,0.6-0.4,1-0.7c0.5-0.3,1-0.7,1.5-1c0,0,0,0,0.1-0.1
			c1.3-0.9,2.7-1.8,4-2.8c0.1-0.1,0.3-0.2,0.4-0.3c1.3-0.9,2.6-1.9,3.9-2.9c1.3-1,2.6-2.1,4-3.2c1.4-1.1,2.6-2.2,4-3.4
			c1.2-1.1,2.4-2.2,3.6-3.3c0.1-0.1,0.3-0.3,0.5-0.5c1.1-1.1,2.2-2.2,3.3-3.3c1.2-1.2,2.4-2.5,3.5-3.7c0.3-0.3,0.6-0.7,0.8-1
			c0.9-0.9,1.7-1.9,2.6-2.9c0.4-0.5,0.9-1.1,1.3-1.6c1.3-1.6,2.7-3.2,3.9-4.9c0.4-0.5,0.8-0.9,1.1-1.4c0.9-1.2,1.8-2.4,2.6-3.6
			c0.1-0.2,0.3-0.4,0.4-0.6c0.9-1.3,1.9-2.6,2.7-4c1.7-2.5,3.2-5,4.6-7.6c0.7-1.3,1.5-2.5,2.2-3.8c0.5-0.9,1-1.9,1.5-2.9
			c0.1-0.1,0.1-0.3,0.2-0.4c0-0.1,0.1-0.1,0.1-0.2c0.8-1.6,1.7-3.3,2.4-4.9c0.1-0.2,0.2-0.4,0.2-0.5c0-0.1,0.1-0.2,0.1-0.2
			c0-0.1,0.1-0.1,0.1-0.2c0.5-1.1,1-2.2,1.5-3.3c0.2-0.6,0.5-1.2,0.7-1.8c0,0,0,0,0,0c0.5-1.2,0.9-2.4,1.4-3.5
			c0.1-0.4,0.2-0.7,0.4-1c0.2-0.6,0.4-1.2,0.6-1.8c0.4-1,0.8-2,1.1-2.9c0.5-1.5,1-3,1.5-4.6c0.1-0.2,0.1-0.4,0.2-0.6c0,0-0.1,0,0,0
			c0.1-0.4,0.2-0.8,0.3-1.1c0-0.1,0.1-0.3,0.1-0.4c0.6-2,1.1-4,1.6-6.1L1124.8,227.1z"/>
	</g>
	<g>
		<path d="M1398.9,297.5c-0.2-0.4-0.4-0.8-0.6-1.1c-0.1-0.1-0.2-0.3-0.3-0.4c-3.2-5.1-7.3-9.5-12.2-12.9c-5.6-4-12.2-6.7-19.3-7.8
			c-2.2-0.3-4.4-0.5-6.7-0.5h-82.9L1173.1,94.9l-38.2-66.2l-0.5-0.9c-0.2-0.4-0.4-0.8-0.6-1.1c-0.1-0.1-0.2-0.3-0.3-0.4
			c-0.1,0-0.1-0.1-0.1-0.1c-0.7-1.1-1.4-2.2-2.2-3.1c-0.2-0.3-0.4-0.5-0.6-0.8c-0.8-1-1.6-1.9-2.4-2.9l-0.2-0.2c-1-1-2.1-2.1-3.2-3
			c0,0,0,0,0,0c-1.1-1-2.2-1.9-3.5-2.7c-0.7-0.5-1.4-1-2.2-1.4c-0.7-0.4-1.5-0.9-2.2-1.3c-0.7-0.4-1.4-0.8-2.1-1.1
			c-0.2-0.1-0.4-0.2-0.6-0.3c-1.2-0.6-2.5-1.1-3.7-1.5c-1.3-0.4-2.5-0.8-3.8-1.2c-0.5-0.2-1-0.3-1.6-0.4c-0.3-0.1-0.7-0.1-1-0.2
			c-0.7-0.2-1.4-0.3-2.1-0.4c-2.2-0.3-4.4-0.5-6.7-0.5c-1.3,0-2.7,0-4,0.2c-0.3,0-0.5,0-0.8,0.1c-0.8,0.1-1.6,0.2-2.4,0.3
			c-0.8,0.1-1.6,0.3-2.3,0.4c-0.8,0.2-1.5,0.4-2.3,0.6c-1.5,0.4-3,0.9-4.4,1.5c-0.8,0.3-1.4,0.6-2.2,0.9c-0.8,0.4-1.6,0.8-2.4,1.2
			c-1.3,0.7-2.6,1.5-3.9,2.3c-0.5,0.4-1.1,0.8-1.6,1.1c-2.5,1.8-4.8,3.8-6.7,6.1c-0.6,0.6-1.1,1.2-1.6,1.8c-0.2,0.1-0.3,0.3-0.4,0.5
			c-0.6,0.8-1.2,1.5-1.7,2.3c-0.5,0.8-1.1,1.6-1.5,2.4c-0.1,0.1-0.2,0.3-0.3,0.4c-0.2,0.3-0.4,0.5-0.5,0.8c-0.1,0.2-0.2,0.4-0.3,0.6
			c-0.9,1.6-1.7,3.2-2.3,4.9c-0.3,0.8-0.6,1.6-0.9,2.4c-0.1,0.1-0.1,0.2-0.1,0.3c-0.3,0.8-0.5,1.7-0.7,2.6c-0.2,0.8-0.4,1.7-0.6,2.5
			c-0.2,0.8-0.3,1.6-0.4,2.5c-0.1,0.8-0.2,1.7-0.3,2.7v0.2c-0.1,1.1-0.1,2.2-0.1,3.3c0,7,1.6,13.7,4.5,19.6c0.3,0.6,0.6,1.3,0.9,1.8
			c0.3,0.6,0.7,1.3,1.1,1.8l12.4,21.7l70.7,122.5l0.2,0.4l32.9,56.9l51.9,89.9l0,0h134.8c9.7,0,18.7-3.1,26-8.3
			c6.4-4.5,11.6-10.8,15-18.1c2.6-5.7,4-11.9,4-18.6C1404.8,311.5,1402.7,304,1398.9,297.5z"/>
	</g>
	<g>
		<path d="M806,31.5c-0.4-0.9-0.8-1.8-1.3-2.7c-0.4-0.8-0.9-1.7-1.5-2.6c-3.1-5-7.3-9.4-12.1-12.8c-7.3-5.3-16.3-8.3-26-8.3
			c-13.9,0-26.5,6.4-34.7,16.5c-0.1,0.1-0.3,0.3-0.4,0.5c-1.2,1.5-2.3,3.1-3.2,4.7c-0.4,0.6-0.8,1.2-1.1,1.8
			c-3.5,6.4-5.5,13.7-5.5,21.4v90.2H586.5V50.4c0-6.6-1.4-12.9-4-18.6c-3.3-7.3-8.5-13.5-15-18.1c-7.3-5.3-16.3-8.3-26-8.3
			c-14.2,0-26.9,6.6-35.1,17c-1.2,1.5-2.3,3.1-3.3,4.7c-0.4,0.6-0.8,1.2-1.1,1.8c-3.5,6.4-5.4,13.7-5.4,21.4v66l13.8,23.9l0.9,1.5
			l1.3,2.2l32.5,56.2l12,20.8l5.3,9.1L583,266l3.5,6.1v-41.9h133.6v89.6c0,8,2.1,15.5,5.8,21.9c2.3,4.1,5.3,7.9,8.7,11.1
			c3.6,3.2,7.6,5.9,12,7.9c2.8,1.3,5.7,2.2,8.8,2.9c3.1,0.7,6.4,1.1,9.7,1.1c0.4,0,0.8,0,1.1,0c1.9,0,3.8-0.2,5.6-0.4
			c0.2,0,0.4,0,0.6-0.1c6.9-1.1,13.2-3.8,18.7-7.7c4.9-3.5,9-7.9,12.2-12.9c0.1-0.1,0.2-0.3,0.3-0.4c0.2-0.4,0.4-0.7,0.7-1.1
			c3.7-6.5,5.8-14.1,5.8-22.2V50C810,43.4,808.6,37.2,806,31.5z"/>
	</g>
</g>
</svg>
